<?xml version="1.0" encoding="UTF-8"?> <svg xmlns="http://www.w3.org/2000/svg" width="140" height="24" viewBox="0 0 140 24" fill="none"> <g clip-path="url(#clip0_47_20)"> <path d="M1.3267 12.4003L4.88671 15.0003L3.53471 19.1873C3.31622 19.8367 3.31345 20.5393 3.52681 21.1904C3.74018 21.8415 4.15825 22.4062 4.7187 22.8003C5.26956 23.2071 5.9371 23.425 6.62186 23.4216C7.30662 23.4182 7.97195 23.1936 8.51871 22.7813L11.9997 20.2193L15.4817 22.7783C16.0316 23.1828 16.6955 23.4025 17.3781 23.4058C18.0607 23.4091 18.7267 23.1959 19.2805 22.7968C19.8342 22.3978 20.2472 21.8334 20.46 21.1848C20.6728 20.5362 20.6744 19.8369 20.4647 19.1873L19.1127 15.0003L22.6727 12.4003C23.2218 11.9988 23.6301 11.4341 23.8391 10.7867C24.048 10.1394 24.0471 9.44251 23.8364 8.79571C23.6257 8.14891 23.2159 7.58525 22.6657 7.18523C22.1155 6.78521 21.453 6.56929 20.7727 6.56832H16.3997L15.0727 2.43232C14.864 1.78128 14.454 1.21333 13.9017 0.810386C13.3494 0.407437 12.6834 0.190308 11.9997 0.190308C11.316 0.190308 10.65 0.407437 10.0977 0.810386C9.54544 1.21333 9.13538 1.78128 8.92671 2.43232L7.59971 6.56832H3.2307C2.55045 6.56929 1.8879 6.78521 1.33768 7.18523C0.787473 7.58525 0.377745 8.14891 0.167026 8.79571C-0.0436933 9.44251 -0.044626 10.1394 0.164361 10.7867C0.373348 11.4341 0.781566 11.9988 1.3307 12.4003H1.3267Z" fill="url(#paint0_linear_47_20)"></path> </g> <g clip-path="url(#clip1_47_20)"> <path d="M30.3267 12.4003L33.8867 15.0003L32.5347 19.1873C32.3162 19.8367 32.3134 20.5393 32.5268 21.1904C32.7402 21.8415 33.1583 22.4062 33.7187 22.8003C34.2696 23.2071 34.9371 23.425 35.6219 23.4216C36.3066 23.4182 36.9719 23.1936 37.5187 22.7813L40.9997 20.2193L44.4817 22.7783C45.0316 23.1828 45.6955 23.4025 46.3781 23.4058C47.0607 23.4091 47.7267 23.1959 48.2805 22.7968C48.8342 22.3978 49.2472 21.8334 49.46 21.1848C49.6728 20.5362 49.6744 19.8369 49.4647 19.1873L48.1127 15.0003L51.6727 12.4003C52.2218 11.9988 52.6301 11.4341 52.8391 10.7867C53.048 10.1394 53.0471 9.44251 52.8364 8.79571C52.6257 8.14891 52.2159 7.58525 51.6657 7.18523C51.1155 6.78521 50.453 6.56929 49.7727 6.56832H45.3997L44.0727 2.43232C43.864 1.78128 43.454 1.21333 42.9017 0.810386C42.3494 0.407437 41.6834 0.190308 40.9997 0.190308C40.316 0.190308 39.65 0.407437 39.0977 0.810386C38.5454 1.21333 38.1354 1.78128 37.9267 2.43232L36.5997 6.56832H32.2307C31.5504 6.56929 30.8879 6.78521 30.3377 7.18523C29.7875 7.58525 29.3777 8.14891 29.167 8.79571C28.9563 9.44251 28.9554 10.1394 29.1644 10.7867C29.3733 11.4341 29.7816 11.9988 30.3307 12.4003H30.3267Z" fill="url(#paint1_linear_47_20)"></path> </g> <g clip-path="url(#clip2_47_20)"> <path d="M59.3267 12.4003L62.8867 15.0003L61.5347 19.1873C61.3162 19.8367 61.3134 20.5393 61.5268 21.1904C61.7402 21.8415 62.1583 22.4062 62.7187 22.8003C63.2696 23.2071 63.9371 23.425 64.6219 23.4216C65.3066 23.4182 65.9719 23.1936 66.5187 22.7813L69.9997 20.2193L73.4817 22.7783C74.0316 23.1828 74.6955 23.4025 75.3781 23.4058C76.0607 23.4091 76.7267 23.1959 77.2805 22.7968C77.8342 22.3978 78.2472 21.8334 78.46 21.1848C78.6728 20.5362 78.6744 19.8369 78.4647 19.1873L77.1127 15.0003L80.6727 12.4003C81.2218 11.9988 81.6301 11.4341 81.8391 10.7867C82.048 10.1394 82.0471 9.44251 81.8364 8.79571C81.6257 8.14891 81.2159 7.58525 80.6657 7.18523C80.1155 6.78521 79.453 6.56929 78.7727 6.56832H74.3997L73.0727 2.43232C72.864 1.78128 72.454 1.21333 71.9017 0.810386C71.3494 0.407437 70.6834 0.190308 69.9997 0.190308C69.316 0.190308 68.65 0.407437 68.0977 0.810386C67.5454 1.21333 67.1354 1.78128 66.9267 2.43232L65.5997 6.56832H61.2307C60.5504 6.56929 59.8879 6.78521 59.3377 7.18523C58.7875 7.58525 58.3777 8.14891 58.167 8.79571C57.9563 9.44251 57.9554 10.1394 58.1644 10.7867C58.3733 11.4341 58.7816 11.9988 59.3307 12.4003H59.3267Z" fill="url(#paint2_linear_47_20)"></path> </g> <g clip-path="url(#clip3_47_20)"> <path d="M88.3267 12.4003L91.8867 15.0003L90.5347 19.1873C90.3162 19.8367 90.3134 20.5393 90.5268 21.1904C90.7402 21.8415 91.1583 22.4062 91.7187 22.8003C92.2696 23.2071 92.9371 23.425 93.6219 23.4216C94.3066 23.4182 94.9719 23.1936 95.5187 22.7813L98.9997 20.2193L102.482 22.7783C103.032 23.1828 103.696 23.4025 104.378 23.4058C105.061 23.4091 105.727 23.1959 106.28 22.7968C106.834 22.3978 107.247 21.8334 107.46 21.1848C107.673 20.5362 107.674 19.8369 107.465 19.1873L106.113 15.0003L109.673 12.4003C110.222 11.9988 110.63 11.4341 110.839 10.7867C111.048 10.1394 111.047 9.44251 110.836 8.79571C110.626 8.14891 110.216 7.58525 109.666 7.18523C109.116 6.78521 108.453 6.56929 107.773 6.56832H103.4L102.073 2.43232C101.864 1.78128 101.454 1.21333 100.902 0.810386C100.349 0.407437 99.6834 0.190308 98.9997 0.190308C98.316 0.190308 97.65 0.407437 97.0977 0.810386C96.5454 1.21333 96.1354 1.78128 95.9267 2.43232L94.5997 6.56832H90.2307C89.5504 6.56929 88.8879 6.78521 88.3377 7.18523C87.7875 7.58525 87.3777 8.14891 87.167 8.79571C86.9563 9.44251 86.9554 10.1394 87.1644 10.7867C87.3733 11.4341 87.7816 11.9988 88.3307 12.4003H88.3267Z" fill="url(#paint3_linear_47_20)"></path> </g> <g clip-path="url(#clip4_47_20)"> <path d="M117.327 12.4003L120.887 15.0003L119.535 19.1873C119.316 19.8367 119.313 20.5393 119.527 21.1904C119.74 21.8415 120.158 22.4062 120.719 22.8003C121.27 23.2071 121.937 23.425 122.622 23.4216C123.307 23.4182 123.972 23.1936 124.519 22.7813L128 20.2193L131.482 22.7783C132.032 23.1828 132.696 23.4025 133.378 23.4058C134.061 23.4091 134.727 23.1959 135.28 22.7968C135.834 22.3978 136.247 21.8334 136.46 21.1848C136.673 20.5362 136.674 19.8369 136.465 19.1873L135.113 15.0003L138.673 12.4003C139.222 11.9988 139.63 11.4341 139.839 10.7867C140.048 10.1394 140.047 9.44251 139.836 8.79571C139.626 8.14891 139.216 7.58525 138.666 7.18523C138.116 6.78521 137.453 6.56929 136.773 6.56832H132.4L131.073 2.43232C130.864 1.78128 130.454 1.21333 129.902 0.810386C129.349 0.407437 128.683 0.190308 128 0.190308C127.316 0.190308 126.65 0.407437 126.098 0.810386C125.545 1.21333 125.135 1.78128 124.927 2.43232L123.6 6.56832H119.231C118.55 6.56929 117.888 6.78521 117.338 7.18523C116.787 7.58525 116.378 8.14891 116.167 8.79571C115.956 9.44251 115.955 10.1394 116.164 10.7867C116.373 11.4341 116.782 11.9988 117.331 12.4003H117.327Z" fill="url(#paint4_linear_47_20)"></path> </g> <defs> <linearGradient id="paint0_linear_47_20" x1="8" y1="1" x2="16" y2="23" gradientUnits="userSpaceOnUse"> <stop stop-color="#FFD318"></stop> <stop offset="1" stop-color="#FEBA07"></stop> </linearGradient> <linearGradient id="paint1_linear_47_20" x1="37" y1="1" x2="45" y2="23" gradientUnits="userSpaceOnUse"> <stop stop-color="#FFD318"></stop> <stop offset="1" stop-color="#FEBA07"></stop> </linearGradient> <linearGradient id="paint2_linear_47_20" x1="66" y1="1" x2="74" y2="23" gradientUnits="userSpaceOnUse"> <stop stop-color="#FFD318"></stop> <stop offset="1" stop-color="#FEBA07"></stop> </linearGradient> <linearGradient id="paint3_linear_47_20" x1="95" y1="1" x2="103" y2="23" gradientUnits="userSpaceOnUse"> <stop stop-color="#FFD318"></stop> <stop offset="1" stop-color="#FEBA07"></stop> </linearGradient> <linearGradient id="paint4_linear_47_20" x1="124" y1="1" x2="132" y2="23" gradientUnits="userSpaceOnUse"> <stop stop-color="#FFD318"></stop> <stop offset="1" stop-color="#FEBA07"></stop> </linearGradient> <clipPath id="clip0_47_20"> <rect width="24" height="24" fill="white"></rect> </clipPath> <clipPath id="clip1_47_20"> <rect width="24" height="24" fill="white" transform="translate(29)"></rect> </clipPath> <clipPath id="clip2_47_20"> <rect width="24" height="24" fill="white" transform="translate(58)"></rect> </clipPath> <clipPath id="clip3_47_20"> <rect width="24" height="24" fill="white" transform="translate(87)"></rect> </clipPath> <clipPath id="clip4_47_20"> <rect width="24" height="24" fill="white" transform="translate(116)"></rect> </clipPath> </defs> </svg> 